<svg id="Layer_1" data-name="Layer 1" xmlns="http://www.w3.org/2000/svg" viewBox="0 0 95.42 89.78"><defs><style>.cls-1{fill:none;stroke:#3f3a34;stroke-linecap:round;stroke-linejoin:round;stroke-width:4px;}</style></defs><path class="cls-1" d="M37.92,72.49C33.34,67.1,34.1,59,36.45,54.3c4.49-9,19-13.73,18.93-13.67h0S55.52,46,59.29,54.8c3,7,1,20.47-12.72,23" transform="translate(-0.29 -3.11)"/><path class="cls-1" d="M82.53,43.94V89.18a1.7,1.7,0,0,1-1.71,1.71H65.15A20.09,20.09,0,0,1,46.08,77.56L46,77.4a29.9,29.9,0,0,1,3.9-26.87" transform="translate(-0.29 -3.11)"/><path class="cls-1" d="M12.84,43.94V89.18a1.7,1.7,0,0,0,1.71,1.71H43" transform="translate(-0.29 -3.11)"/><path class="cls-1" d="M88.84,32.7,47.69,6.43,6.53,32.7a2.87,2.87,0,0,0-1.32,2.42v8.22a2.29,2.29,0,0,0,3.52,1.94l39-24.87,39,24.87a2.29,2.29,0,0,0,3.52-1.94V35.12A2.87,2.87,0,0,0,88.84,32.7Z" transform="translate(-0.29 -3.11)"/><polygon class="cls-1" points="77.57 2 65.22 2 65.22 14.7 77.57 22.58 77.57 2"/><line class="cls-1" x1="79.61" y1="7.77" x2="63.19" y2="7.77"/><line class="cls-1" x1="2" y1="87.78" x2="14.26" y2="87.78"/><line class="cls-1" x1="80.53" y1="87.78" x2="85.17" y2="87.78"/><line class="cls-1" x1="90.42" y1="87.78" x2="93.42" y2="87.78"/></svg>