<svg id="Layer_1" data-name="Layer 1" xmlns="http://www.w3.org/2000/svg" viewBox="0 0 93 74.28"><defs><style>.cls-1{fill:none;stroke:#3f3a34;stroke-linecap:round;stroke-linejoin:round;stroke-width:2px;}</style></defs><path class="cls-1" d="M14.74,80.26l47,.12A3.62,3.62,0,0,0,64,79.61l10.59-8.36a3.48,3.48,0,0,0,.76-.82L92.88,44.36A3.56,3.56,0,0,0,92,39.43l0,0a6.06,6.06,0,0,0-8.37,1.7L72.08,57.86a3.67,3.67,0,0,1-.87.89l-5.07,3.63" transform="translate(-1.5 -10.86)"/><path class="cls-1" d="M12.05,53.63l5.62-.28C21.93,49.87,24.81,50,29.38,50c4.76,0,12.67,2.11,16.81,8.35l14.43.55a6.06,6.06,0,0,1,6.12,6v0a3.55,3.55,0,0,1-3.55,3.5l-31.61.43" transform="translate(-1.5 -10.86)"/><rect class="cls-1" x="-7.85" y="62.76" width="33.27" height="8.7" transform="translate(-58.31 72.91) rotate(-96.8)"/><path class="cls-1" d="M52.72,42.22S49,32.89,40.05,28.78" transform="translate(-1.5 -10.86)"/><path class="cls-1" d="M50.65,31.08c-.15-3.86-3.45-6.83-6.13-7.85-5.15-2-11.9,2.41-11.86,2.41h0a23.68,23.68,0,0,1,3.67,7.14c1.37,3.91,7.16,8.59,13.61,4.54" transform="translate(-1.5 -10.86)"/><path class="cls-1" d="M54.12,22.23c.79-5.33,5.81-9,9.68-10,7.43-2,17.38,4,17.34,4h0S78.12,19,75,25.59c-2.5,5.23-11.23,10.86-19.57,4.27" transform="translate(-1.5 -10.86)"/><path class="cls-1" d="M52.69,41.74A22.8,22.8,0,0,1,72.63,18" transform="translate(-1.5 -10.86)"/><path class="cls-1" d="M73.73,55.47a17.48,17.48,0,0,0-29.28-7.75A13.3,13.3,0,0,0,30.6,50" transform="translate(-1.5 -10.86)"/></svg>