<?xml version="1.0" encoding="UTF-8"?>
<svg xmlns="http://www.w3.org/2000/svg" version="1.1" viewBox="0 0 35.9 32">
  <defs>
    <style>
      .cls-1 {
        fill: #00d8ff;
      }

      .cls-1, .cls-2 {
        display: none;
      }

      .cls-3 {
        fill: #4b6542;
      }
    </style>
  </defs>
  <!-- Generator: Adobe Illustrator 28.7.1, SVG Export Plug-In . SVG Version: 1.2.0 Build 142)  -->
  <g>
    <g id="Layer_1">
      <path class="cls-1" d="M29.5,10.4c-.4-.1-.8-.3-1.2-.4,0-.3.1-.5.2-.8.9-4.2.3-7.7-1.7-8.8-1.9-1.1-4.9,0-8,2.7-.3.3-.6.5-.9.8-.2-.2-.4-.4-.6-.5C14.1.5,10.9-.7,8.9.5c-1.9,1.1-2.4,4.3-1.6,8.3,0,.4.2.8.3,1.2-.5.1-.9.3-1.3.4C2.4,11.7,0,13.8,0,16s2.6,4.5,6.6,5.8c.3.1.6.2,1,.3-.1.4-.2.9-.3,1.3-.8,4-.2,7.1,1.7,8.2,1.9,1.1,5.2,0,8.3-2.8.3-.2.5-.5.7-.7.3.3.6.6,1,.9,3.1,2.6,6.1,3.7,7.9,2.6,1.9-1.1,2.6-4.5,1.7-8.6,0-.3-.1-.6-.2-1,.2,0,.5-.1.7-.2,4.1-1.4,6.8-3.6,6.8-5.8s-2.5-4.3-6.4-5.6ZM28.6,20.3c-.2,0-.4.1-.6.2-.5-1.4-1.1-3-1.8-4.6.7-1.5,1.3-3.1,1.7-4.5.4.1.7.2,1.1.3,3.3,1.1,5.4,2.8,5.4,4.1s-2.2,3.2-5.7,4.4ZM27.2,23.2c.4,1.8.4,3.5.2,4.7-.2,1.2-.6,1.9-1.2,2.2-1.1.7-3.6-.2-6.2-2.4-.3-.3-.6-.5-.9-.8,1-1.1,2-2.4,3-3.8,1.7-.2,3.4-.4,4.9-.8,0,.3.1.6.2.9ZM12.2,30.1c-1.1.4-2,.4-2.5,0-1.1-.7-1.6-3.2-1-6.6,0-.4.2-.8.3-1.2,1.5.3,3.1.6,4.8.7,1,1.4,2,2.7,3.1,3.8-.2.2-.5.4-.7.6-1.4,1.2-2.8,2.1-4,2.5ZM7.1,20.3c-1.8-.6-3.2-1.4-4.2-2.2-.9-.8-1.3-1.5-1.3-2.1,0-1.3,2-3,5.2-4.1.4-.1.8-.3,1.2-.4.4,1.5,1,3,1.8,4.5-.7,1.6-1.3,3.1-1.8,4.6-.3,0-.6-.2-.9-.3ZM8.8,8.5c-.7-3.5-.2-6.1.9-6.7,1.2-.7,3.9.3,6.7,2.8.2.2.4.3.5.5-1,1.1-2.1,2.4-3.1,3.8-1.7.2-3.3.4-4.8.7,0-.4-.2-.7-.2-1.1h0ZM24.3,12.3c-.4-.6-.7-1.2-1.1-1.8,1.1.1,2.2.3,3.3.6-.3,1-.7,2-1.1,3.1-.3-.6-.7-1.3-1-1.9ZM18,6.2c.7.8,1.4,1.6,2.1,2.6-1.4,0-2.8,0-4.2,0,.7-.9,1.4-1.8,2.1-2.6ZM11.6,12.3c-.4.6-.7,1.2-1,1.9-.4-1.1-.8-2.1-1.1-3.1,1-.2,2.1-.4,3.3-.6-.4.6-.7,1.2-1.1,1.8h0ZM12.8,21.5c-1.2-.1-2.3-.3-3.3-.5.3-1,.7-2.1,1.2-3.2.3.6.7,1.2,1,1.9.4.6.7,1.2,1.1,1.8ZM18,25.9c-.7-.8-1.5-1.7-2.2-2.6.7,0,1.4,0,2.1,0s1.5,0,2.2,0c-.7,1-1.4,1.8-2.1,2.6ZM25.4,17.7c.5,1.1.9,2.2,1.2,3.2-1,.2-2.2.4-3.4.6.4-.6.7-1.2,1.1-1.8.4-.6.7-1.3,1-1.9ZM23,18.9c-.5.9-1.1,1.9-1.7,2.8-1.1,0-2.2.1-3.3.1-1.1,0-2.2,0-3.3-.1-.6-.9-1.2-1.8-1.8-2.8h0c-.5-.9-1.1-1.9-1.5-2.9.5-1,1-2,1.5-2.9h0c.5-.9,1.1-1.9,1.7-2.8,1.1,0,2.2-.1,3.3-.1h0c1.1,0,2.2,0,3.3.1.6.9,1.2,1.8,1.7,2.8.5.9,1.1,1.9,1.5,2.9-.5,1-1,2-1.5,2.9ZM26.1,1.7c1.2.7,1.7,3.5.9,7.2,0,.2-.1.5-.2.7-1.5-.3-3.1-.6-4.8-.8-1-1.4-2-2.7-3-3.8.3-.3.5-.5.8-.8,2.7-2.3,5.1-3.2,6.3-2.6ZM18,12.7c1.8,0,3.2,1.4,3.2,3.2s-1.4,3.2-3.2,3.2-3.2-1.4-3.2-3.2,1.4-3.2,3.2-3.2Z"/>
      <g class="cls-2">
        <g>
          <path class="cls-3" d="M16.5,23c.3-.4.7-.8,1.1-1.2-1.3-1-3-1.7-4.8-1.7s-.9,0-1.4.1l.2,1.6c.4,0,.8-.1,1.2-.1,1.4,0,2.7.5,3.7,1.3Z"/>
          <path class="cls-3" d="M15,26.2c.1-.7.4-1.4.7-2-.8-.7-1.8-1.2-3-1.2s-.7,0-1.1.1l.2,1.8c.3,0,.6-.1.9-.1,1,0,1.9.6,2.3,1.4Z"/>
          <path class="cls-3" d="M14.9,28.9h.1c0,0,0-.1,0-.2,0,0,0,.1-.1.2Z"/>
          <path class="cls-3" d="M18.1,22.3c-.4.4-.8.8-1.1,1.2-.3.4-.6.9-.8,1.3-.4.9-.6,1.8-.6,2.8s0,.9.1,1.3h1.7c-.1-.4-.2-.9-.2-1.3,0-1,.3-2,.8-2.8.3-.5.7-.9,1.1-1.3,1.1-1,2.5-1.6,4.1-1.6s.8,0,1.2.1l.2-1.6c-.4,0-.9-.1-1.4-.1-2,0-3.8.7-5.1,1.9Z"/>
          <path class="cls-3" d="M19.8,24.8c-.6.8-1,1.7-1,2.8s0,.9.2,1.3h1.9c-.2-.4-.4-.8-.4-1.3,0-1.5,1.2-2.6,2.6-2.6s.6,0,.8.1l.2-1.8c-.3,0-.7-.1-1-.1-1.4,0-2.6.6-3.4,1.6Z"/>
          <path class="cls-3" d="M17.9,8.2c-.4.2-.8.5-1.1.8-.7.8-1.1,1.8-1.1,3s.4,2.2,1.1,3c.3.3.7.6,1.1.8.4-.2.8-.5,1.1-.8.7-.8,1.1-1.8,1.1-3s-.4-2.2-1.1-3c-.3-.3-.7-.6-1.1-.8ZM17.9,14.2c-.6-.6-1-1.4-1-2.3s.4-1.7,1-2.3c.6.6,1,1.4,1,2.3s-.4,1.7-1,2.3Z"/>
          <path class="cls-3" d="M17,20.1c.1,0,.2,0,.4,0,.1,0,.3,0,.4,0h0s0,0,0,0h0s0,0,0,0h0c.1,0,.3,0,.4,0,.1,0,.2,0,.4,0,2.2-.3,4-2.1,4.3-4.3,0-.3,0-.5,0-.8s0-.2,0-.4c-.4,0-.8-.1-1.2-.1h0c-1.4,0-2.6.6-3.5,1.4-.2.2-.4.4-.6.6h0c-.2-.2-.4-.4-.6-.6-.9-.9-2.2-1.4-3.5-1.4h0c-.4,0-.8,0-1.2.1,0,.1,0,.2,0,.4,0,.3,0,.6,0,.8.4,2.2,2.1,4,4.3,4.3ZM18.5,17.8s0,0,0-.1c.7-1.2,2-2,3.5-2.1-.3,1.6-1.5,2.9-3.2,3.3-.1,0-.2,0-.4,0v-1.2ZM17.3,17.6s0,0,0,.1v1.2c-.1,0-.2,0-.4,0-1.6-.3-2.9-1.6-3.2-3.3,1.5,0,2.8.8,3.5,2.1Z"/>
          <path class="cls-3" d="M24.6,32c1,0,1.9-.8,2-1.8v-.5c0,0,3-23.5,3-23.5.1-1.2-.8-2.3-2-2.3H8.3c-1.2,0-2.1,1.1-2,2.3l2.9,23.5v.5c.2,1,1,1.8,2.1,1.8h13.3ZM8.7,7.3c0-.6.4-1.1,1-1.1h16.5c.6,0,1,.5,1,1.1l-2.7,21.6c0,.5-.5.8-1,.8h-11.2c-.5,0-.9-.4-1-.8l-2.7-21.6Z"/>
          <path class="cls-3" d="M5.5,1.3c0,.6.5,1,1,1h22.8c.5,0,1-.4,1-1h0c0-.7-.4-1.3-1-1.3H6.6c-.6,0-1.1.6-1,1.3h0Z"/>
        </g>
      </g>
      <g>
        <path class="cls-3" d="M27.6,4H8.3c-1.2,0-2.1,1.1-2,2.3l2.9,23.5v.5c.2,1,1,1.8,2.1,1.8h13.3c1,0,1.9-.8,2-1.8v-.5c0,0,3-23.5,3-23.5.1-1.2-.8-2.3-2-2.3ZM16.9,9c.3-.3.7-.6,1.1-.8.4.2.7.5,1.1.8.7.8,1.1,1.8,1.1,2.9s-.4,2.2-1.1,2.9c-.3.3-.7.6-1.1.8-.4-.2-.8-.5-1.1-.8-.7-.8-1.1-1.8-1.1-2.9s.4-2.2,1.1-2.9ZM12.6,14.6c.4,0,.8-.1,1.2-.1h0c1.4,0,2.6.5,3.5,1.4.2.2.4.4.6.6h0c.2-.2.4-.4.6-.6.9-.9,2.2-1.4,3.5-1.4h0c.4,0,.8,0,1.2.1,0,.1,0,.2,0,.4,0,.3,0,.6,0,.8-.4,2.2-2.1,4-4.3,4.3-.1,0-.2,0-.4,0-.1,0-.3,0-.4,0h0s0,0,0,0h0s0,0,0,0h0c-.1,0-.3,0-.4,0-.1,0-.2,0-.4,0-2.2-.3-4-2.1-4.3-4.3,0-.3,0-.5,0-.8s0-.2,0-.4ZM11.3,20.3c.5,0,.9-.1,1.4-.1,1.8,0,3.5.6,4.8,1.6-.4.4-.8.7-1.1,1.2-1-.8-2.3-1.3-3.7-1.3s-.8,0-1.2.1l-.2-1.6ZM14.9,28.9c0,0,0-.1.1-.2,0,0,0,.1,0,.2h-.1ZM12.7,24.8c-.3,0-.6,0-.9.1l-.2-1.8c.3,0,.7-.1,1.1-.1,1.2,0,2.2.4,3,1.2-.3.6-.5,1.3-.7,2-.4-.8-1.3-1.4-2.3-1.4ZM24,25.1c-.3,0-.5-.1-.8-.1-1.5,0-2.6,1.2-2.6,2.6s.1.9.4,1.3h-1.9c-.1-.4-.2-.9-.2-1.3,0-1.1.4-2,1-2.8.8-1,2-1.6,3.4-1.6s.7,0,1,.1l-.2,1.8ZM24.4,22c-.4,0-.8-.1-1.2-.1-1.6,0-3,.6-4.1,1.6-.4.4-.8.8-1.1,1.3-.5.8-.8,1.8-.8,2.8s0,.9.2,1.3h-1.7c0-.4-.1-.9-.1-1.3,0-1,.2-2,.6-2.8.2-.5.5-.9.8-1.3.3-.4.7-.8,1.1-1.2,1.3-1.2,3.2-1.9,5.1-1.9s.9,0,1.4.1l-.2,1.6Z"/>
        <path class="cls-3" d="M17.4,17.8v1.2c-.1,0-.2,0-.4,0-1.6-.3-2.9-1.6-3.2-3.3,1.5,0,2.8.8,3.5,2.1,0,0,0,0,0,.1Z"/>
        <path class="cls-3" d="M18.9,12c0,.9-.4,1.7-1,2.3-.6-.6-1-1.4-1-2.3s.4-1.7,1-2.3c.6.6,1,1.4,1,2.3Z"/>
        <path class="cls-3" d="M22,15.6c-.3,1.6-1.5,2.9-3.2,3.3-.1,0-.2,0-.4,0v-1.2s0,0,0-.1c.7-1.2,2-2,3.5-2.1Z"/>
        <path class="cls-3" d="M30.4,1.1s0,0,0,.1c0,.6-.5,1-1,1H6.6c-.3,0-.5-.1-.7-.3-.2-.2-.3-.4-.3-.7,0-.7.4-1.3,1-1.3h22.8c.6,0,1,.5,1,1.1Z"/>
      </g>
    </g>
  </g>
</svg>