<?xml version="1.0" encoding="UTF-8"?>
<svg xmlns="http://www.w3.org/2000/svg" version="1.1" viewBox="0 0 1080 308.3">
  <defs>
    <style>
      .cls-1 {
        fill: #4b6542;
      }
    </style>
  </defs>
  <!-- Generator: Adobe Illustrator 28.7.1, SVG Export Plug-In . SVG Version: 1.2.0 Build 142)  -->
  <g>
    <g id="Layer_1">
      <g>
        <g>
          <path class="cls-1" d="M382,117.5v68.6c0,28.5-14.5,42.7-43.6,42.7s-15.1-1-22.1-3c-7-2-12.7-4.8-17.3-8.6l8.5-14.2c3.5,2.9,8,5.3,13.4,7,5.4,1.8,10.9,2.7,16.4,2.7,8.9,0,15.4-2,19.5-6.1,4.1-4,6.2-10.2,6.2-18.5v-4.2c-3.2,3.5-7.2,6.2-11.8,8-4.6,1.8-9.7,2.7-15.3,2.7s-14.6-1.6-20.8-4.9c-6.2-3.3-11.1-7.9-14.7-13.9-3.6-6-5.4-12.8-5.4-20.5s1.8-14.5,5.4-20.4c3.6-5.9,8.5-10.5,14.7-13.7,6.2-3.2,13.2-4.8,20.8-4.8s11.2,1,16,2.9c4.8,1.9,8.8,4.8,12,8.8v-10.8h18ZM356.5,172.3c4.6-4.3,6.9-9.9,6.9-16.7s-2.3-12.3-6.9-16.5c-4.6-4.2-10.5-6.4-17.6-6.4s-13.2,2.1-17.8,6.4c-4.6,4.2-6.9,9.7-6.9,16.5s2.3,12.4,6.9,16.7c4.6,4.3,10.5,6.4,17.8,6.4s13.1-2.1,17.6-6.4Z"/>
          <path class="cls-1" d="M453.7,116.6v18c-1.6-.3-3.1-.5-4.4-.5-7.4,0-13.1,2.1-17.3,6.4-4.1,4.3-6.2,10.5-6.2,18.6v39.2h-18.9v-80.9h18v11.8c5.5-8.5,15-12.7,28.8-12.7Z"/>
          <path class="cls-1" d="M529.5,174.7l10,11.7c-3.5,4.3-8.1,7.6-13.6,9.8-5.6,2.2-11.8,3.3-18.8,3.3s-16.7-1.8-23.5-5.3c-6.8-3.5-12-8.5-15.7-14.8-3.7-6.3-5.5-13.5-5.5-21.4s1.8-15,5.4-21.3c3.6-6.3,8.5-11.2,14.8-14.8,6.3-3.5,13.5-5.3,21.4-5.3s14.5,1.6,20.7,4.9c6.2,3.3,11.1,8,14.8,14.1,3.6,6.1,5.5,13.3,5.5,21.4l-62,12.1c1.9,4.6,5,8.2,9.2,10.6,4.2,2.4,9.3,3.6,15.3,3.6,8.8,0,16.1-2.9,22-8.8ZM487.1,138.6c-4.3,4.5-6.4,10.7-6.4,18.3v.2l45.8-8.8c-1.3-4.9-4-8.9-8-12-4-3-8.8-4.5-14.5-4.5s-12.6,2.3-16.9,6.8Z"/>
          <path class="cls-1" d="M623.5,174.7l10,11.7c-3.5,4.3-8.1,7.6-13.6,9.8-5.6,2.2-11.8,3.3-18.8,3.3s-16.7-1.8-23.5-5.3c-6.8-3.5-12-8.5-15.7-14.8-3.7-6.3-5.5-13.5-5.5-21.4s1.8-15,5.4-21.3c3.6-6.3,8.5-11.2,14.8-14.8,6.3-3.5,13.5-5.3,21.4-5.3s14.5,1.6,20.7,4.9c6.2,3.3,11.1,8,14.8,14.1,3.6,6.1,5.5,13.3,5.5,21.4l-62,12.1c1.9,4.6,5,8.2,9.2,10.6,4.2,2.4,9.3,3.6,15.3,3.6,8.8,0,16.1-2.9,22-8.8ZM581.2,138.6c-4.3,4.5-6.4,10.7-6.4,18.3v.2l45.8-8.8c-1.3-4.9-4-8.9-8-12-4-3-8.8-4.5-14.5-4.5s-12.6,2.3-16.9,6.8Z"/>
          <path class="cls-1" d="M727.6,125.6c6.2,6,9.2,14.8,9.2,26.5v46.4h-18.9v-43.9c0-7.1-1.7-12.4-5-16-3.3-3.6-8.1-5.4-14.2-5.4s-12.5,2.1-16.5,6.3c-4,4.2-6.1,10.2-6.1,18.1v40.9h-18.9v-80.9h18v10.5c3.1-3.7,7.1-6.6,11.8-8.5,4.7-1.9,10.1-2.9,16.1-2.9,10.2,0,18.4,3,24.5,8.9Z"/>
          <path class="cls-1" d="M826.9,121.8c6.2,3.4,11.1,8.3,14.6,14.5,3.5,6.3,5.3,13.5,5.3,21.7s-1.8,15.4-5.3,21.7c-3.5,6.3-8.4,11.2-14.6,14.6-6.2,3.4-13.3,5.2-21.1,5.2s-19.5-3.6-25.9-10.9v39.2h-18.9v-110.3h18v10.6c3.1-3.8,7-6.7,11.6-8.6,4.6-1.9,9.7-2.9,15.2-2.9,7.9,0,14.9,1.7,21.1,5.2ZM820.9,176.3c4.5-4.6,6.7-10.8,6.7-18.3s-2.2-13.7-6.7-18.3c-4.5-4.6-10.2-7-17.2-7s-8.6,1-12.3,3.1c-3.6,2.1-6.5,5-8.6,8.9-2.1,3.8-3.2,8.3-3.2,13.3s1.1,9.5,3.2,13.3c2.1,3.8,5,6.8,8.6,8.9,3.6,2.1,7.7,3.1,12.3,3.1,7,0,12.7-2.3,17.2-7Z"/>
          <path class="cls-1" d="M865.8,100.9c-2.3-2.2-3.5-4.9-3.5-8.1s1.2-5.9,3.5-8.1c2.3-2.2,5.2-3.3,8.6-3.3s6.3,1,8.6,3.1c2.3,2.1,3.5,4.7,3.5,7.8s-1.1,6.1-3.4,8.4c-2.3,2.3-5.2,3.4-8.7,3.4s-6.3-1.1-8.6-3.3ZM864.9,117.5h18.9v80.9h-18.9v-80.9Z"/>
          <path class="cls-1" d="M923.2,194.2c-6.7-3.5-11.9-8.5-15.6-14.8-3.7-6.3-5.6-13.5-5.6-21.4s1.9-15.1,5.6-21.4c3.7-6.3,8.9-11.2,15.5-14.7,6.6-3.5,14.2-5.3,22.6-5.3s15,1.6,21,4.8c6,3.2,10.5,7.9,13.6,13.9l-14.5,8.5c-2.3-3.7-5.2-6.5-8.7-8.4-3.5-1.9-7.3-2.8-11.4-2.8-7.1,0-12.9,2.3-17.6,6.9-4.6,4.6-7,10.7-7,18.4s2.3,13.8,6.9,18.4c4.6,4.6,10.5,6.9,17.6,6.9s8-.9,11.4-2.8c3.5-1.9,6.4-4.7,8.7-8.4l14.5,8.5c-3.1,6.1-7.7,10.7-13.7,14-6,3.3-13,4.9-20.8,4.9s-15.9-1.8-22.6-5.3Z"/>
          <path class="cls-1" d="M1028.9,163.7l-14.1,13.3v21.4h-18.9v-112.4h18.9v67.9l39.2-36.4h22.7l-33.8,33.9,37,47h-23l-28-34.7Z"/>
        </g>
        <g>
          <path class="cls-1" d="M211.8,38.5H27c-11.6,0-20.6,10.2-19.2,21.7l27.8,226,.6,4.7c1.2,9.7,9.4,16.9,19.2,16.9h128.1c9.8,0,18-7.3,19.2-16.9l.6-4.7,27.8-226c1.4-11.5-7.6-21.7-19.2-21.7ZM108.8,87c2.9-3.2,6.3-6,10.1-8.1,3.8,2.2,7.2,4.9,10.1,8.1,6.8,7.5,10.9,17.4,10.9,28.3s-4.2,20.8-10.9,28.3c-2.9,3.2-6.3,6-10.1,8.1-3.8-2.2-7.2-4.9-10.1-8.1-6.8-7.5-10.9-17.4-10.9-28.3s4.2-20.9,10.9-28.3ZM68.1,140.2c3.6-.8,7.3-1.2,11.1-1.2h.3c13.2,0,25.2,5.3,34.1,13.7,1.9,1.8,3.7,3.8,5.3,5.9h0c1.6-2,3.4-4,5.3-5.7,8.9-8.4,20.9-13.6,34.1-13.7h.3c3.8,0,7.5.4,11.1,1.2,0,1.2.1,2.4.1,3.6,0,2.7-.2,5.3-.6,7.9-3.4,21.3-20.2,38.1-41.6,41.5-1.1.2-2.3.3-3.4.4-1.3.1-2.7.2-4.1.2h-.3c-.3,0-.6,0-.9,0h0c-.3,0-.6,0-.9,0h-.3c-1.4,0-2.7,0-4.1-.2-1.2,0-2.3-.2-3.4-.4-21.3-3.3-38.2-20.2-41.6-41.5-.4-2.6-.6-5.2-.6-7.9s0-2.4.1-3.6ZM55.6,195.1c4.3-.8,8.8-1.2,13.3-1.2,17.5,0,33.7,5.9,46.3,15.8-3.8,3.4-7.3,7.2-10.3,11.3-9.8-7.6-22.3-12.2-35.9-12.2s-7.9.4-11.6,1.1l-1.7-14.9ZM89.6,278.1c.4-.6.8-1.1,1.1-1.7,0,.6.2,1.1.3,1.7h-1.4ZM69,238.3c-2.9,0-5.6.5-8.2,1.4l-2-17c3.3-.8,6.6-1.2,10.1-1.2,11.1,0,21.2,4.3,28.7,11.3-3,5.9-5.1,12.3-6.4,19-4.3-8-12.7-13.4-22.3-13.4ZM177.8,241.5c-2.5-.8-5.2-1.3-8-1.3-13.9,0-25.3,11.3-25.3,25.3s1.2,8.9,3.4,12.6h-18.3c-1.2-4-1.9-8.2-1.9-12.6,0-10.1,3.5-19.3,9.4-26.6,7.7-9.5,19.5-15.6,32.7-15.6s6.7.4,9.9,1.2l-2,16.9ZM181.2,211.9c-3.7-.7-7.5-1.1-11.4-1.1-15.3,0-29.3,5.8-39.5,15.2-4.1,3.7-7.6,8-10.3,12.8-4.7,7.9-7.3,17-7.3,26.8s.5,8.5,1.5,12.6h-16c-.8-4.1-1.2-8.3-1.2-12.6,0-9.7,2-18.8,5.7-27.2,2-4.5,4.5-8.8,7.4-12.8,3-4.1,6.5-7.9,10.3-11.3,13-11.4,30.3-18.4,49.4-18.4s8.9.4,13.1,1.1l-1.7,14.9Z"/>
          <path class="cls-1" d="M113.6,171.1v11.2c-1.2-.1-2.3-.3-3.4-.6-15.6-3.2-27.8-15.7-30.4-31.5,14.3.2,26.6,8.1,33.2,19.7.2.4.4.7.6,1.1Z"/>
          <path class="cls-1" d="M128.2,115.3c0,8.6-3.6,16.4-9.3,21.9-5.7-5.5-9.3-13.3-9.3-21.9s3.6-16.4,9.3-21.9c5.7,5.5,9.3,13.3,9.3,21.9Z"/>
          <path class="cls-1" d="M158.1,150.3c-2.6,15.8-14.8,28.3-30.4,31.5-1.1.2-2.3.4-3.4.6v-11.2c.2-.4.4-.8.6-1.1,6.5-11.6,18.9-19.6,33.2-19.7Z"/>
          <path class="cls-1" d="M238.8,11.2c0,.4,0,.9,0,1.3-.6,5.4-4.9,9.5-10,9.5H10.1c-2.5,0-4.9-1-6.7-2.7C1.6,17.6.4,15.2,0,12.5-.7,6.1,4,.4,10.1.4h218.7c5.6,0,10.1,4.9,10.1,10.8Z"/>
        </g>
      </g>
    </g>
  </g>
</svg>