<svg id="Layer_1" data-name="Layer 1" xmlns="http://www.w3.org/2000/svg" viewBox="0 0 241.16 95.58"><defs><style>.cls-1{fill:none;stroke:#3f3a34;stroke-linecap:round;stroke-linejoin:round;stroke-width:2px;}</style></defs><polyline class="cls-1" points="158.45 72.75 158.45 29.64 171.76 23.97 171.76 48.86"/><polyline class="cls-1" points="174.47 26.81 181.81 30.46 181.81 48.86"/><polyline class="cls-1" points="181.81 49.98 181.81 41.64 193.46 41.64 193.46 47.59"/><polyline class="cls-1" points="193.46 47.59 193.46 31.08 205.1 31.08 205.1 72.75"/><path class="cls-1" d="M185.2,63.23a6.82,6.82,0,0,1-13.63,0c0-3.77,3.05-9.1,6.82-9.1S185.2,59.46,185.2,63.23Z" transform="translate(-2.3 -2.64)"/><line class="cls-1" x1="176.08" y1="60.35" x2="176.08" y2="72.75"/><line class="cls-1" x1="176.08" y1="63.04" x2="178.15" y2="62.23"/><line class="cls-1" x1="174.06" y1="63.68" x2="176.08" y2="64.57"/><path class="cls-1" d="M202.57,63.23a6.82,6.82,0,0,1-13.63,0c0-3.77,3.05-9.1,6.82-9.1S202.57,59.46,202.57,63.23Z" transform="translate(-2.3 -2.64)"/><line class="cls-1" x1="193.45" y1="60.35" x2="193.45" y2="72.75"/><line class="cls-1" x1="193.45" y1="63.04" x2="195.52" y2="62.23"/><line class="cls-1" x1="191.43" y1="63.68" x2="193.45" y2="64.57"/><line class="cls-1" x1="215.72" y1="43.31" x2="222.3" y2="45.29"/><line class="cls-1" x1="215.72" y1="43.31" x2="210.66" y2="47.95"/><line class="cls-1" x1="215.72" y1="43.31" x2="214.07" y2="36.64"/><line class="cls-1" x1="216.02" y1="44.31" x2="216.02" y2="54.07"/><line class="cls-1" x1="229.28" y1="49.18" x2="233.22" y2="51.43"/><line class="cls-1" x1="229.28" y1="49.18" x2="225.33" y2="51.42"/><line class="cls-1" x1="229.28" y1="49.18" x2="229.2" y2="44.64"/><line class="cls-1" x1="229.2" y1="49.98" x2="229.2" y2="54.07"/><polygon class="cls-1" points="229.69 68.72 211.34 68.72 212.23 57.62 228.8 57.62 229.69 68.72"/><line class="cls-1" x1="217.42" y1="68.12" x2="217.78" y2="57.94"/><line class="cls-1" x1="223.61" y1="68.12" x2="223.25" y2="57.94"/><line class="cls-1" x1="211.79" y1="63.03" x2="228.64" y2="63.03"/><line class="cls-1" x1="220.52" y1="69.8" x2="220.52" y2="72.75"/><line class="cls-1" x1="154.41" y1="72.75" x2="232.32" y2="72.75"/><path class="cls-1" d="M230,20a46,46,0,0,1,11.87,28" transform="translate(-2.3 -2.64)"/><path class="cls-1" d="M241.87,48c.07,1,.1,2,.1,3a46.17,46.17,0,1,1-37.1-45.32" transform="translate(-2.3 -2.64)"/><path class="cls-1" d="M242.2,29.39c1.38-6.66-3-13.12-7.15-16-8-5.54-21-4.7-20.94-4.67h0s2.37,4.6,3.25,13.75c.7,7.27,8.6,17.72,21.34,13.53" transform="translate(-2.3 -2.64)"/><path class="cls-1" d="M77.64,26.45a56.56,56.56,0,0,0-26-14.39" transform="translate(-2.3 -2.64)"/><path class="cls-1" d="M64.77,24c-5.53,2.59-12.07.11-15.46-2.91-6.49-5.79-8.46-17.34-8.43-17.3h0s4.51,1.11,12.68,0C60,2.84,70.81,7.57,69.8,19.56" transform="translate(-2.3 -2.64)"/><polyline class="cls-1" points="63.13 56.46 56.84 48.91 45.72 48.91 45.72 61.6 45.72 61.6 34.48 48.91 23.36 48.91 23.36 61.6 23.36 61.6 12.12 48.91 1 48.91 1 61.6 1 62.34 1 89.72 58.98 89.72"/><polygon class="cls-1" points="86.81 29.7 69.59 29.7 66 89.72 90.4 89.72 86.81 29.7"/><polyline class="cls-1" points="14.59 67.62 7.17 67.62 7.17 72.35 14.59 72.35 14.59 68.04"/><polyline class="cls-1" points="34.72 67.62 27.3 67.62 27.3 72.35 34.72 72.35 34.72 68.04"/><polyline class="cls-1" points="54.85 67.62 47.43 67.62 47.43 72.35 54.85 72.35 54.85 68.04"/></svg>