<svg id="Layer_1" data-name="Layer 1" xmlns="http://www.w3.org/2000/svg" viewBox="0 0 91.88 92.15"><defs><style>.cls-1{fill:none;stroke:#3f3a34;stroke-linecap:round;stroke-linejoin:round;stroke-width:2px;}</style></defs><path class="cls-1" d="M57.88,48.87c-.71.5-1,1-.37,1.43,1.27.91,2,2.31,0,2.39,0,0-2.15,2.78-.87,4a1.73,1.73,0,0,0,2.47,0s10.38-2.4,12.77.53-13.3,2.28-14.37,2.28-7,8.3-3.77,11.16,6-.36,8,1.2c1.87,1.42,5.46,14.11,2.6,17.8" transform="translate(-2.06 -1.93)"/><path class="cls-1" d="M36.25,91.44c2.08-2,11-10.75,9.25-14.24-2-3.94-8.64-8.14-11.63-8s-3.7,2.39-4.89-1.07-11.42-4.51-4-7c6.94-2.36,15-8.38,14.74-12.67" transform="translate(-2.06 -1.93)"/><path class="cls-1" d="M32.94,89.9c.31-2.87.73-8.17-.22-9.12-1.31-1.31-6.25-3.52-3.7-7.57,0,0-3.87-4.73-7-6.16S13.58,60.81,14,58.2c0,0,2.64-7.12,0-9.8" transform="translate(-2.06 -1.93)"/><path class="cls-1" d="M3.6,48.4H92.94a44.67,44.67,0,0,1-89.34,0Z" transform="translate(-2.06 -1.93)"/><line class="cls-1" x1="62.4" y1="13.01" x2="74.25" y2="16.58"/><line class="cls-1" x1="62.4" y1="13.01" x2="53.28" y2="21.37"/><line class="cls-1" x1="62.4" y1="13.01" x2="59.43" y2="1"/><line class="cls-1" x1="62.94" y1="14.82" x2="62.94" y2="46.47"/><line class="cls-1" x1="79.78" y1="23.58" x2="86.88" y2="27.63"/><line class="cls-1" x1="79.78" y1="23.58" x2="72.67" y2="27.62"/><line class="cls-1" x1="79.78" y1="23.58" x2="79.64" y2="15.41"/><line class="cls-1" x1="79.64" y1="25.03" x2="79.64" y2="46.47"/><polygon class="cls-1" points="54.6 41.17 32.75 41.17 33.81 27.96 53.54 27.96 54.6 41.17"/><line class="cls-1" x1="39.99" y1="40.45" x2="40.42" y2="28.33"/><line class="cls-1" x1="47.36" y1="40.45" x2="46.93" y2="28.33"/><line class="cls-1" x1="33.29" y1="34.39" x2="53.35" y2="34.39"/><line class="cls-1" x1="43.67" y1="42.45" x2="43.67" y2="45.96"/><line class="cls-1" x1="20.23" y1="45.58" x2="20.23" y2="22.24"/><polyline class="cls-1" points="25.72 39.3 20.23 33.85 14.75 39.3"/><polyline class="cls-1" points="25.23 32.63 20.23 27.65 15.24 32.63"/><polyline class="cls-1" points="24.34 25.75 20.23 21.66 16.12 25.75"/><line class="cls-1" x1="6.49" y1="45.58" x2="6.49" y2="22.24"/><polyline class="cls-1" points="11.97 39.3 6.49 33.85 1 39.3"/><polyline class="cls-1" points="11.48 32.63 6.49 27.65 1.49 32.63"/><polyline class="cls-1" points="10.6 25.75 6.49 21.66 2.38 25.75"/></svg>